<svg width="128" height="128" viewBox="0 0 128 128" fill="none" xmlns="http://www.w3.org/2000/svg">
<path d="M116 2.99997H12C9.64031 2.97596 7.36747 3.88902 5.68019 5.5388C3.99291 7.18859 3.02901 9.44034 3 11.8V116.22C3.03426 118.576 4.00046 120.823 5.68717 122.468C7.37388 124.114 9.64373 125.024 12 125H116C118.36 125.019 120.631 124.103 122.318 122.452C124.004 120.801 124.968 118.55 125 116.19V11.77C124.958 9.41726 123.989 7.17624 122.304 5.53403C120.618 3.89182 118.353 2.98115 116 2.99997Z" fill="#0076B2"/>
<path d="M21.0591 48.73H39.1691V107H21.0591V48.73ZM30.1191 19.73C32.1963 19.73 34.2267 20.346 35.9537 21.5002C37.6806 22.6544 39.0264 24.2949 39.8208 26.2141C40.6153 28.1333 40.8226 30.245 40.4167 32.2821C40.0107 34.3192 39.0097 36.1901 37.5402 37.6581C36.0708 39.1262 34.1989 40.1254 32.1615 40.5294C30.124 40.9335 28.0125 40.7241 26.094 39.9278C24.1756 39.1316 22.5364 37.7842 21.3839 36.0562C20.2313 34.3282 19.6172 32.2971 19.6191 30.22C19.6218 27.4369 20.7292 24.7688 22.6981 22.8018C24.6669 20.8349 27.3361 19.73 30.1191 19.73ZM50.5291 48.73H67.8891V56.73H68.1291C70.5491 52.15 76.4491 47.32 85.2591 47.32C103.599 47.28 106.999 59.35 106.999 75V107H88.8891V78.65C88.8891 71.9 88.7691 63.21 79.4791 63.21C70.1891 63.21 68.6091 70.57 68.6091 78.21V107H50.5291V48.73Z" fill="white"/>
</svg>
