<svg width="171" height="65" viewBox="0 0 171 65" fill="none" xmlns="http://www.w3.org/2000/svg">
<path d="M9.38287 12.1514V24.3258C9.38287 25.5432 9.685 26.4804 10.2893 27.1375C10.8935 27.7945 11.7804 28.123 12.95 28.123C14.1195 28.123 15.0161 27.7945 15.6399 27.1375C16.2636 26.4804 16.5755 25.5432 16.5755 24.3258V12.1514H21.5753V24.2968C21.5753 26.1133 21.1854 27.6495 20.4057 28.9056C19.626 30.1617 18.5735 31.1086 17.248 31.7463C15.942 32.384 14.4801 32.7029 12.8622 32.7029C11.2444 32.7029 9.79221 32.3937 8.50572 31.7753C7.23873 31.1376 6.23488 30.1907 5.49417 28.9346C4.75347 27.6592 4.38312 26.1133 4.38312 24.2968V12.1514H9.38287ZM41.0211 12.1514V16.1226H35.5827V32.5H30.583V16.1226H25.1446V12.1514H41.0211ZM57.2723 32.5L53.0912 26.2679L49.4072 32.5H43.7349L50.3135 22.1518L43.5887 12.1514H49.4072L53.5298 18.2966L57.1553 12.1514H62.8275L56.3074 22.4127L63.0907 32.5H57.2723ZM76.4773 32.7029C74.5476 32.7029 72.7738 32.2584 71.156 31.3695C69.5576 30.4806 68.2809 29.2438 67.3257 27.6592C66.3901 26.0553 65.9223 24.2581 65.9223 22.2677C65.9223 20.2773 66.3901 18.4898 67.3257 16.9052C68.2809 15.3206 69.5576 14.0839 71.156 13.195C72.7738 12.306 74.5476 11.8616 76.4773 11.8616C78.4071 11.8616 80.1711 12.306 81.7695 13.195C83.3873 14.0839 84.6543 15.3206 85.5705 16.9052C86.5061 18.4898 86.9739 20.2773 86.9739 22.2677C86.9739 24.2581 86.5061 26.0553 85.5705 27.6592C84.6348 29.2438 83.3678 30.4806 81.7695 31.3695C80.1711 32.2584 78.4071 32.7029 76.4773 32.7029ZM76.4773 28.181C78.1147 28.181 79.4207 27.6399 80.3953 26.5577C81.3894 25.4756 81.8864 24.0456 81.8864 22.2677C81.8864 20.4706 81.3894 19.0406 80.3953 17.9777C79.4207 16.8956 78.1147 16.3545 76.4773 16.3545C74.8205 16.3545 73.495 16.8859 72.5009 17.9487C71.5263 19.0116 71.039 20.4512 71.039 22.2677C71.039 24.0649 71.5263 25.5045 72.5009 26.5867C73.495 27.6495 74.8205 28.181 76.4773 28.181Z" fill="black"/>
<path d="M119.611 16.6892H108.979C108.001 16.6892 107.207 17.4757 107.207 18.446V26.3514C107.207 27.3216 108.001 28.1081 108.979 28.1081H119.611C120.59 28.1081 121.383 27.3216 121.383 26.3514V18.446C121.383 17.4757 120.59 16.6892 119.611 16.6892Z" fill="#9B9B9B"/>
<path d="M137.332 6.14868H126.7C125.721 6.14868 124.927 6.93521 124.927 7.90544V15.8108C124.927 16.7811 125.721 17.5676 126.7 17.5676H137.332C138.31 17.5676 139.104 16.7811 139.104 15.8108V7.90544C139.104 6.93521 138.31 6.14868 137.332 6.14868Z" fill="#9B9B9B"/>
<path d="M137.332 27.2297H126.7C125.721 27.2297 124.927 28.0163 124.927 28.9865V36.8919C124.927 37.8621 125.721 38.6487 126.7 38.6487H137.332C138.31 38.6487 139.104 37.8621 139.104 36.8919V28.9865C139.104 28.0163 138.31 27.2297 137.332 27.2297Z" fill="#9B9B9B"/>
<path d="M106.062 23.459C106.408 23.116 106.408 22.5598 106.062 22.2168L100.423 16.6268C100.078 16.2838 99.5158 16.2838 99.1703 16.6268C98.8238 16.9699 98.8238 17.526 99.1703 17.869L104.182 22.8379L99.1703 27.8068C98.8238 28.1498 98.8238 28.7059 99.1703 29.049C99.5158 29.392 100.078 29.392 100.423 29.049L106.062 23.459ZM87.715 23.7162H105.435V21.9595H87.715V23.7162Z" fill="#9B9B9B"/>
<path d="M168.082 12.9184C168.429 12.5754 168.429 12.0192 168.082 11.6762L162.444 6.08625C162.098 5.74322 161.537 5.74322 161.191 6.08625C160.845 6.42928 160.845 6.98544 161.191 7.32847L166.203 12.2973L161.191 17.2662C160.845 17.6092 160.845 18.1653 161.191 18.5084C161.537 18.8514 162.098 18.8514 162.444 18.5084L168.082 12.9184ZM139.104 13.1757H167.456V11.4189H139.104V13.1757Z" fill="#9B9B9B"/>
<path d="M168.082 33.9995C168.429 33.6565 168.429 33.1003 168.082 32.7573L162.444 27.1673C162.098 26.8243 161.537 26.8243 161.191 27.1673C160.845 27.5104 160.845 28.0665 161.191 28.4095L166.203 33.3784L161.191 38.3473C160.845 38.6903 160.845 39.2464 161.191 39.5895C161.537 39.9325 162.098 39.9325 162.444 39.5895L168.082 33.9995ZM139.104 34.2568H167.456V32.5H139.104V34.2568Z" fill="#9B9B9B"/>
<path d="M139.104 1.75671H101.891C98.4659 1.75671 95.6891 4.50956 95.6891 7.90536V36.8918C95.6891 40.2877 98.4659 43.0405 101.891 43.0405H139.104C142.529 43.0405 145.306 40.2877 145.306 36.8918V7.90536C145.306 4.50956 142.529 1.75671 139.104 1.75671Z" stroke="#9B9B9B" stroke-width="2"/>
<path d="M9.12947 52.8679C9.65868 52.8679 10.13 52.9785 10.5435 53.1999C10.957 53.4131 11.2836 53.7368 11.5235 54.1714C11.7633 54.6059 11.8832 55.1347 11.8832 55.7577V59.7298H10.7668V55.9176C10.7668 55.2454 10.5973 54.7329 10.2582 54.3804C9.9275 54.0197 9.47679 53.8394 8.9062 53.8394C8.31906 53.8394 7.85184 54.0279 7.50453 54.405C7.15721 54.774 6.98355 55.3109 6.98355 56.016V59.7298H5.86718V55.9176C5.86718 55.2454 5.69766 54.7329 5.35861 54.3804C5.02784 54.0197 4.57715 53.8394 4.00656 53.8394C3.41943 53.8394 2.95221 54.0279 2.60489 54.405C2.25757 54.774 2.08392 55.3109 2.08392 56.016V59.7298H0.955139V52.9908H2.08392V53.9623C2.30719 53.6098 2.60489 53.3393 2.97702 53.1507C3.35741 52.9621 3.77502 52.8679 4.22983 52.8679C4.80042 52.8679 5.30486 52.995 5.74314 53.2491C6.18142 53.5032 6.50806 53.8762 6.72307 54.3681C6.91327 53.8927 7.2275 53.5238 7.66578 53.2614C8.10406 52.999 8.59196 52.8679 9.12947 52.8679ZM13.8092 56.3357C13.8092 55.6471 13.9498 55.0445 14.2309 54.528C14.5122 54.0033 14.8967 53.5975 15.3845 53.3106C15.8807 53.0236 16.4306 52.8802 17.0343 52.8802C17.6297 52.8802 18.1466 53.0073 18.5848 53.2614C19.0231 53.5155 19.3498 53.8352 19.5647 54.2206V52.9908H20.7059V59.7298H19.5647V58.4754C19.3415 58.8689 19.0065 59.1968 18.56 59.4592C18.1218 59.7133 17.609 59.8404 17.0219 59.8404C16.4182 59.8404 15.8725 59.6929 15.3845 59.3977C14.8967 59.1026 14.5122 58.6886 14.2309 58.1557C13.9498 57.6228 13.8092 57.0162 13.8092 56.3357ZM19.5647 56.348C19.5647 55.8397 19.4614 55.397 19.2546 55.0199C19.0479 54.6428 18.7668 54.3558 18.4111 54.1591C18.0638 53.9542 17.6793 53.8517 17.2576 53.8517C16.8358 53.8517 16.4513 53.95 16.104 54.1468C15.7567 54.3435 15.4797 54.6305 15.2729 55.0076C15.0662 55.3847 14.9628 55.8274 14.9628 56.3357C14.9628 56.8522 15.0662 57.3031 15.2729 57.6884C15.4797 58.0655 15.7567 58.3566 16.104 58.5615C16.4513 58.7583 16.8358 58.8566 17.2576 58.8566C17.6793 58.8566 18.0638 58.7583 18.4111 58.5615C18.7668 58.3566 19.0479 58.0655 19.2546 57.6884C19.4614 57.3031 19.5647 56.8563 19.5647 56.348ZM26.9053 59.7298L24.2384 56.7538V59.7298H23.1097V50.6298H24.2384V55.9791L26.8557 52.9908H28.431L25.2308 56.348L28.4434 59.7298H26.9053ZM36.1916 56.1021C36.1916 56.3152 36.1792 56.5406 36.1544 56.7784H30.7214C30.7627 57.4425 30.9902 57.9631 31.4036 58.3402C31.8253 58.7091 32.3339 58.8935 32.9293 58.8935C33.4172 58.8935 33.8224 58.7829 34.1449 58.5615C34.4757 58.332 34.7073 58.0286 34.8395 57.6515H36.0552C35.8733 58.2991 35.5094 58.8279 34.9636 59.2379C34.4178 59.6396 33.7397 59.8404 32.9293 59.8404C32.2843 59.8404 31.7055 59.697 31.1927 59.41C30.6883 59.1231 30.2914 58.7173 30.0019 58.1926C29.7126 57.6597 29.5678 57.0448 29.5678 56.348C29.5678 55.6512 29.7084 55.0404 29.9895 54.5157C30.2707 53.9911 30.6635 53.5893 31.1679 53.3106C31.6807 53.0236 32.2678 52.8802 32.9293 52.8802C33.5743 52.8802 34.1449 53.0196 34.6411 53.2983C35.1372 53.577 35.5177 53.9623 35.7823 54.4542C36.0551 54.9379 36.1916 55.4872 36.1916 56.1021ZM35.0256 55.8684C35.0256 55.4421 34.9305 55.0773 34.7403 54.774C34.5502 54.4624 34.2897 54.2287 33.9589 54.073C33.6363 53.909 33.2766 53.8271 32.8797 53.8271C32.3091 53.8271 31.8213 54.0074 31.416 54.3681C31.0191 54.7289 30.7917 55.229 30.7338 55.8684H35.0256Z" fill="#9B9B9B"/>
<path d="M45.89 59.8404C45.3691 59.8404 44.9019 59.7544 44.4884 59.5822C44.0749 59.4019 43.7483 59.1559 43.5084 58.8444C43.2686 58.5246 43.1363 58.1598 43.1115 57.7499H44.2775C44.3105 58.0861 44.4677 58.3606 44.7489 58.5738C45.0383 58.787 45.4145 58.8935 45.8776 58.8935C46.3076 58.8935 46.6467 58.7993 46.8948 58.6107C47.1429 58.4221 47.2669 58.1844 47.2669 57.8975C47.2669 57.6023 47.1346 57.3851 46.87 57.2457C46.6053 57.0981 46.196 56.9547 45.642 56.8153C45.1376 56.6842 44.724 56.5529 44.4015 56.4218C44.0873 56.2824 43.8144 56.0816 43.5829 55.8192C43.3596 55.5487 43.248 55.1962 43.248 54.7617C43.248 54.4173 43.3514 54.1017 43.5581 53.8148C43.7648 53.5278 44.0584 53.3024 44.4388 53.1384C44.8191 52.9663 45.2533 52.8802 45.7412 52.8802C46.4937 52.8802 47.1015 53.0688 47.5646 53.4459C48.0277 53.8229 48.2758 54.3394 48.3088 54.9953H47.1801C47.1553 54.6428 47.0106 54.36 46.7459 54.1468C46.4896 53.9336 46.1423 53.8271 45.704 53.8271C45.2988 53.8271 44.9763 53.9131 44.7365 54.0853C44.4966 54.2575 44.3767 54.483 44.3767 54.7617C44.3767 54.983 44.447 55.1675 44.5876 55.315C44.7365 55.4544 44.9184 55.5692 45.1334 55.6594C45.3567 55.7413 45.6626 55.8357 46.0513 55.9422C46.5392 56.0733 46.9362 56.2046 47.2421 56.3357C47.548 56.4587 47.8085 56.6473 48.0236 56.9014C48.2468 57.1555 48.3626 57.4875 48.3709 57.8975C48.3709 58.2664 48.2675 58.5984 48.0608 58.8935C47.8541 59.1887 47.5604 59.4223 47.1801 59.5945C46.8079 59.7585 46.378 59.8404 45.89 59.8404ZM51.8374 53.9131V57.8852C51.8374 58.2131 51.9076 58.4467 52.0483 58.5861C52.1888 58.7173 52.4328 58.7829 52.7801 58.7829H53.6112V59.7298H52.594C51.9655 59.7298 51.4941 59.5863 51.18 59.2994C50.8657 59.0124 50.7086 58.5411 50.7086 57.8852V53.9131H49.8279V52.9908H50.7086V51.2938H51.8374V52.9908H53.6112V53.9131H51.8374ZM55.0532 56.3357C55.0532 55.6471 55.1938 55.0445 55.475 54.528C55.7561 54.0034 56.1406 53.5975 56.6286 53.3106C57.1247 53.0236 57.6746 52.8802 58.2783 52.8802C58.8737 52.8802 59.3905 53.0073 59.8288 53.2614C60.2671 53.5155 60.5937 53.8352 60.8088 54.2206V52.9908H61.9499V59.7298H60.8088V58.4754C60.5855 58.869 60.2506 59.1969 59.804 59.4592C59.3657 59.7133 58.853 59.8404 58.2659 59.8404C57.6622 59.8404 57.1164 59.6929 56.6286 59.3977C56.1406 59.1026 55.7561 58.6886 55.475 58.1557C55.1938 57.6228 55.0532 57.0162 55.0532 56.3357ZM60.8088 56.348C60.8088 55.8397 60.7054 55.397 60.4987 55.0199C60.2919 54.6428 60.0107 54.3559 59.6552 54.1591C59.3079 53.9542 58.9233 53.8517 58.5016 53.8517C58.0799 53.8517 57.6953 53.95 57.348 54.1468C57.0007 54.3436 56.7236 54.6305 56.5169 55.0076C56.3101 55.3847 56.2068 55.8274 56.2068 56.3357C56.2068 56.8522 56.3101 57.3031 56.5169 57.6884C56.7236 58.0655 57.0007 58.3566 57.348 58.5615C57.6953 58.7583 58.0799 58.8567 58.5016 58.8567C58.9233 58.8567 59.3079 58.7583 59.6552 58.5615C60.0107 58.3566 60.2919 58.0655 60.4987 57.6884C60.7054 57.3031 60.8088 56.8563 60.8088 56.348ZM72.5279 52.8679C73.0572 52.8679 73.5285 52.9786 73.942 53.1999C74.3555 53.4131 74.6821 53.7369 74.9219 54.1714C75.1618 54.6059 75.2817 55.1347 75.2817 55.7577V59.7298H74.1653V55.9176C74.1653 55.2454 73.9958 54.7329 73.6567 54.3804C73.326 54.0197 72.8753 53.8394 72.3047 53.8394C71.7175 53.8394 71.2503 54.028 70.903 54.405C70.5557 54.774 70.382 55.3109 70.382 56.016V59.7298H69.2657V55.9176C69.2657 55.2454 69.0962 54.7329 68.7571 54.3804C68.4263 54.0197 67.9756 53.8394 67.405 53.8394C66.8179 53.8394 66.3507 54.028 66.0034 54.405C65.656 54.774 65.4824 55.3109 65.4824 56.016V59.7298H64.3536V52.9908H65.4824V53.9623C65.7057 53.6098 66.0034 53.3393 66.3755 53.1507C66.7558 52.9621 67.1735 52.8679 67.6283 52.8679C68.1989 52.8679 68.7033 52.995 69.1416 53.2491C69.5799 53.5032 69.9065 53.8763 70.1215 54.3681C70.3118 53.8927 70.6259 53.5238 71.0643 53.2614C71.5026 52.999 71.9904 52.8679 72.5279 52.8679ZM78.7582 54.2329C78.9815 53.8475 79.3123 53.5278 79.7505 53.2737C80.1971 53.0113 80.714 52.8802 81.301 52.8802C81.9048 52.8802 82.4506 53.0236 82.9384 53.3106C83.4346 53.5975 83.8232 54.0034 84.1044 54.528C84.3856 55.0445 84.5261 55.6471 84.5261 56.3357C84.5261 57.0162 84.3856 57.6228 84.1044 58.1557C83.8232 58.6886 83.4346 59.1026 82.9384 59.3977C82.4506 59.6929 81.9048 59.8404 81.301 59.8404C80.7222 59.8404 80.2095 59.7133 79.7629 59.4592C79.3247 59.1969 78.9898 58.8731 78.7582 58.4877V62.9271H77.6294V52.9908H78.7582V54.2329ZM83.3725 56.3357C83.3725 55.8274 83.2692 55.3847 83.0624 55.0076C82.8557 54.6305 82.5746 54.3436 82.2189 54.1468C81.8716 53.95 81.4871 53.8517 81.0654 53.8517C80.6519 53.8517 80.2674 53.9542 79.9118 54.1591C79.5645 54.3559 79.2833 54.6469 79.0683 55.0322C78.8616 55.4093 78.7582 55.848 78.7582 56.348C78.7582 56.8563 78.8616 57.3031 79.0683 57.6884C79.2833 58.0655 79.5645 58.3566 79.9118 58.5615C80.2674 58.7583 80.6519 58.8567 81.0654 58.8567C81.4871 58.8567 81.8716 58.7583 82.2189 58.5615C82.5746 58.3566 82.8557 58.0655 83.0624 57.6884C83.2692 57.3031 83.3725 56.8522 83.3725 56.3357ZM88.9147 59.8404C88.3935 59.8404 87.9263 59.7544 87.5129 59.5822C87.0994 59.4019 86.7727 59.1559 86.5329 58.8444C86.2931 58.5246 86.1608 58.1598 86.136 57.7499H87.302C87.335 58.0861 87.4921 58.3606 87.7733 58.5738C88.0627 58.787 88.439 58.8935 88.9023 58.8935C89.332 58.8935 89.6714 58.7993 89.9194 58.6107C90.1675 58.4221 90.2916 58.1844 90.2916 57.8975C90.2916 57.6023 90.1587 57.3851 89.8946 57.2457C89.6297 57.0981 89.2204 56.9547 88.6666 56.8153C88.1619 56.6842 87.7485 56.5529 87.426 56.4218C87.1118 56.2824 86.8389 56.0816 86.6074 55.8192C86.3841 55.5487 86.2724 55.1962 86.2724 54.7617C86.2724 54.4173 86.3758 54.1017 86.5825 53.8148C86.7893 53.5278 87.0828 53.3024 87.4632 53.1384C87.8436 52.9663 88.2777 52.8802 88.7659 52.8802C89.5181 52.8802 90.1259 53.0688 90.5893 53.4459C91.0518 53.8229 91.2998 54.3394 91.3335 54.9953H90.2047C90.1799 54.6428 90.0346 54.36 89.7706 54.1468C89.5136 53.9336 89.1663 53.8271 88.7286 53.8271C88.3232 53.8271 88.0007 53.9131 87.7609 54.0853C87.5211 54.2575 87.4012 54.483 87.4012 54.7617C87.4012 54.983 87.4715 55.1675 87.6121 55.315C87.7609 55.4544 87.9428 55.5692 88.1579 55.6594C88.3811 55.7413 88.687 55.8357 89.076 55.9422C89.5633 56.0733 89.9602 56.2046 90.2668 56.3357C90.5724 56.4587 90.8329 56.6473 91.0482 56.9014C91.2715 57.1555 91.3867 57.4875 91.3955 57.8975C91.3955 58.2664 91.2919 58.5984 91.0854 58.8935C90.8781 59.1887 90.5848 59.4223 90.2047 59.5945C89.8326 59.7585 89.402 59.8404 88.9147 59.8404Z" fill="#9B9B9B"/>
<path d="M98.659 54.2329C98.8823 53.8475 99.2128 53.5278 99.6514 53.2737C100.098 53.0113 100.614 52.8802 101.202 52.8802C101.805 52.8802 102.351 53.0236 102.839 53.3106C103.335 53.5975 103.724 54.0034 104.005 54.528C104.286 55.0445 104.427 55.6471 104.427 56.3357C104.427 57.0162 104.286 57.6228 104.005 58.1557C103.724 58.6886 103.335 59.1026 102.839 59.3977C102.351 59.6929 101.805 59.8404 101.202 59.8404C100.623 59.8404 100.11 59.7133 99.6638 59.4592C99.2252 59.1969 98.8903 58.8731 98.659 58.4877V62.9271H97.5303V52.9908H98.659V54.2329ZM103.273 56.3357C103.273 55.8274 103.17 55.3847 102.963 55.0076C102.757 54.6305 102.475 54.3436 102.12 54.1468C101.772 53.95 101.388 53.8517 100.966 53.8517C100.552 53.8517 100.168 53.9542 99.8126 54.1591C99.4653 54.3559 99.1845 54.6469 98.9692 55.0322C98.7627 55.4093 98.659 55.848 98.659 56.348C98.659 56.8563 98.7627 57.3031 98.9692 57.6884C99.1845 58.0655 99.4653 58.3566 99.8126 58.5615C100.168 58.7583 100.552 58.8567 100.966 58.8567C101.388 58.8567 101.772 58.7583 102.12 58.5615C102.475 58.3566 102.757 58.0655 102.963 57.6884C103.17 57.3031 103.273 56.8522 103.273 56.3357ZM112.611 56.1021C112.611 56.3152 112.599 56.5406 112.574 56.7784H107.141C107.182 57.4425 107.409 57.9631 107.823 58.3402C108.245 58.7091 108.753 58.8935 109.349 58.8935C109.837 58.8935 110.242 58.7829 110.564 58.5615C110.895 58.332 111.127 58.0286 111.259 57.6515H112.475C112.293 58.2992 111.929 58.8279 111.383 59.2379C110.837 59.6396 110.159 59.8404 109.349 59.8404C108.704 59.8404 108.125 59.697 107.612 59.41C107.108 59.1231 106.711 58.7173 106.421 58.1926C106.132 57.6597 105.987 57.0448 105.987 56.348C105.987 55.6512 106.128 55.0404 106.409 54.5157C106.69 53.9911 107.083 53.5893 107.587 53.3106C108.1 53.0236 108.687 52.8802 109.349 52.8802C109.994 52.8802 110.564 53.0196 111.061 53.2983C111.557 53.577 111.937 53.9623 112.202 54.4542C112.475 54.938 112.611 55.4872 112.611 56.1021ZM111.445 55.8684C111.445 55.4421 111.35 55.0773 111.16 54.774C110.969 54.4624 110.709 54.2288 110.378 54.073C110.056 53.909 109.696 53.8271 109.299 53.8271C108.729 53.8271 108.24 54.0074 107.835 54.3681C107.439 54.7289 107.211 55.229 107.153 55.8684H111.445ZM115.726 54.0853C115.925 53.7 116.206 53.4008 116.57 53.1876C116.942 52.9744 117.392 52.8679 117.922 52.8679V54.0238H117.624C116.359 54.0238 115.726 54.7043 115.726 56.0652V59.7298H114.597V52.9908H115.726V54.0853ZM127.895 52.8679C128.425 52.8679 128.896 52.9786 129.309 53.1999C129.723 53.4131 130.05 53.7369 130.289 54.1714C130.529 54.6059 130.648 55.1347 130.648 55.7577V59.7298H129.532V55.9176C129.532 55.2454 129.363 54.7329 129.024 54.3804C128.693 54.0197 128.242 53.8394 127.671 53.8394C127.085 53.8394 126.617 54.028 126.27 54.405C125.922 54.774 125.749 55.3109 125.749 56.016V59.7298H124.632V55.9176C124.632 55.2454 124.463 54.7329 124.124 54.3804C123.793 54.0197 123.342 53.8394 122.772 53.8394C122.185 53.8394 121.717 54.028 121.37 54.405C121.023 54.774 120.849 55.3109 120.849 56.016V59.7298H119.72V52.9908H120.849V53.9623C121.072 53.6098 121.37 53.3393 121.742 53.1507C122.123 52.9621 122.541 52.8679 122.995 52.8679C123.566 52.8679 124.071 52.995 124.508 53.2491C124.947 53.5032 125.274 53.8763 125.488 54.3681C125.679 53.8927 125.993 53.5238 126.431 53.2614C126.87 52.999 127.358 52.8679 127.895 52.8679ZM132.575 56.3357C132.575 55.6471 132.716 55.0445 132.996 54.528C133.277 54.0034 133.662 53.5975 134.15 53.3106C134.646 53.0236 135.196 52.8802 135.8 52.8802C136.395 52.8802 136.912 53.0073 137.35 53.2614C137.789 53.5155 138.115 53.8352 138.33 54.2206V52.9908H139.471V59.7298H138.33V58.4754C138.107 58.869 137.772 59.1969 137.325 59.4592C136.887 59.7133 136.375 59.8404 135.787 59.8404C135.184 59.8404 134.638 59.6929 134.15 59.3977C133.662 59.1026 133.277 58.6886 132.996 58.1557C132.716 57.6228 132.575 57.0162 132.575 56.3357ZM138.33 56.348C138.33 55.8397 138.226 55.397 138.02 55.0199C137.814 54.6428 137.532 54.3559 137.177 54.1591C136.829 53.9542 136.445 53.8517 136.023 53.8517C135.601 53.8517 135.217 53.95 134.869 54.1468C134.522 54.3436 134.245 54.6305 134.038 55.0076C133.832 55.3847 133.728 55.8274 133.728 56.3357C133.728 56.8522 133.832 57.3031 134.038 57.6884C134.245 58.0655 134.522 58.3566 134.869 58.5615C135.217 58.7583 135.601 58.8567 136.023 58.8567C136.445 58.8567 136.829 58.7583 137.177 58.5615C137.532 58.3566 137.814 58.0655 138.02 57.6884C138.226 57.3031 138.33 56.8563 138.33 56.348ZM145.187 52.8679C146.014 52.8679 146.683 53.118 147.196 53.618C147.709 54.1099 147.966 54.8231 147.966 55.7577V59.7298H146.849V55.9176C146.849 55.2454 146.68 54.7329 146.341 54.3804C146.001 54.0197 145.539 53.8394 144.951 53.8394C144.356 53.8394 143.88 54.0238 143.525 54.3927C143.178 54.7617 143.004 55.2986 143.004 56.0037V59.7298H141.875V52.9908H143.004V53.95C143.227 53.6057 143.529 53.3393 143.909 53.1507C144.298 52.9621 144.724 52.8679 145.187 52.8679ZM156.508 56.1021C156.508 56.3152 156.495 56.5406 156.47 56.7784H151.037C151.079 57.4425 151.306 57.9631 151.72 58.3402C152.141 58.7091 152.65 58.8935 153.245 58.8935C153.733 58.8935 154.138 58.7829 154.461 58.5615C154.791 58.332 155.023 58.0286 155.156 57.6515H156.371C156.189 58.2992 155.825 58.8279 155.28 59.2379C154.734 59.6396 154.056 59.8404 153.245 59.8404C152.6 59.8404 152.022 59.697 151.509 59.41C151.005 59.1231 150.608 58.7173 150.318 58.1926C150.028 57.6597 149.884 57.0448 149.884 56.348C149.884 55.6512 150.025 55.0404 150.305 54.5157C150.586 53.9911 150.98 53.5893 151.484 53.3106C151.997 53.0236 152.583 52.8802 153.245 52.8802C153.89 52.8802 154.461 53.0196 154.957 53.2983C155.453 53.577 155.833 53.9623 156.098 54.4542C156.371 54.938 156.508 55.4872 156.508 56.1021ZM155.342 55.8684C155.342 55.4421 155.247 55.0773 155.056 54.774C154.866 54.4624 154.605 54.2288 154.275 54.073C153.952 53.909 153.593 53.8271 153.196 53.8271C152.625 53.8271 152.137 54.0074 151.732 54.3681C151.335 54.7289 151.107 55.229 151.05 55.8684H155.342ZM161.806 52.8679C162.633 52.8679 163.302 53.118 163.815 53.618C164.327 54.1099 164.584 54.8231 164.584 55.7577V59.7298H163.468V55.9176C163.468 55.2454 163.298 54.7329 162.959 54.3804C162.62 54.0197 162.157 53.8394 161.57 53.8394C160.975 53.8394 160.499 54.0238 160.144 54.3927C159.796 54.7617 159.623 55.2986 159.623 56.0037V59.7298H158.494V52.9908H159.623V53.95C159.846 53.6057 160.147 53.3393 160.528 53.1507C160.916 52.9621 161.343 52.8679 161.806 52.8679ZM168.301 53.9131V57.8852C168.301 58.2131 168.371 58.4467 168.512 58.5861C168.652 58.7173 168.897 58.7829 169.244 58.7829H170.075V59.7298H169.058C168.429 59.7298 167.957 59.5863 167.644 59.2994C167.329 59.0124 167.172 58.5411 167.172 57.8852V53.9131H166.292V52.9908H167.172V51.2938H168.301V52.9908H170.075V53.9131H168.301Z" fill="#9B9B9B"/>
</svg>
