<svg width="39" height="37" viewBox="0 0 39 37" fill="none" xmlns="http://www.w3.org/2000/svg">
<path d="M10.6129 4.5L11.424 7.15378H14.049L11.9254 8.79391L12.7365 11.4477L10.6129 9.80756L8.48929 11.4477L9.30044 8.79391L7.17683 7.15378H9.80175L10.6129 4.5Z" fill="#FFD057"/>
<g filter="url(#filter0_d_110_22)">
<path fill-rule="evenodd" clip-rule="evenodd" d="M10.7898 19.2167C12.2289 20.4789 14.0728 21.2377 16.0812 21.2377C20.6734 21.2377 24.4055 17.2705 24.4055 12.3888C24.4055 10.2539 23.6917 8.29395 22.5044 6.76418C22.633 6.75986 22.7622 6.75769 22.8918 6.75769C29.5714 6.75769 34.9999 12.5283 34.9999 19.6289C34.9999 26.7294 29.5714 32.5 22.8918 32.5C16.2122 32.5 10.7837 26.7294 10.7837 19.6289C10.7837 19.4909 10.7857 19.3535 10.7898 19.2167Z" fill="#FFD057"/>
</g>
<defs>
<filter id="filter0_d_110_22" x="0.783691" y="0.75769" width="44.2162" height="45.7423" filterUnits="userSpaceOnUse" color-interpolation-filters="sRGB">
<feFlood flood-opacity="0" result="BackgroundImageFix"/>
<feColorMatrix in="SourceAlpha" type="matrix" values="0 0 0 0 0 0 0 0 0 0 0 0 0 0 0 0 0 0 127 0" result="hardAlpha"/>
<feOffset dy="4"/>
<feGaussianBlur stdDeviation="5"/>
<feComposite in2="hardAlpha" operator="out"/>
<feColorMatrix type="matrix" values="0 0 0 0 1 0 0 0 0 1 0 0 0 0 1 0 0 0 0.08 0"/>
<feBlend mode="normal" in2="BackgroundImageFix" result="effect1_dropShadow_110_22"/>
<feBlend mode="normal" in="SourceGraphic" in2="effect1_dropShadow_110_22" result="shape"/>
</filter>
</defs>
</svg>
