<svg width="256" height="256" viewBox="0 0 256 256" fill="none" xmlns="http://www.w3.org/2000/svg">
<g clip-path="url(#clip0_673_2500)">
<path d="M128 0C94.06 0 61.48 13.494 37.5 37.49C13.4953 61.4955 0.0066494 94.0516 0 128C0 161.934 13.5 194.514 37.5 218.51C61.48 242.506 94.06 256 128 256C161.94 256 194.52 242.506 218.5 218.51C242.5 194.514 256 161.934 256 128C256 94.066 242.5 61.486 218.5 37.49C194.52 13.494 161.94 0 128 0Z" fill="url(#paint0_linear_673_2500)"/>
<path d="M57.941 126.648C95.261 110.392 120.141 99.674 132.581 94.496C168.141 79.71 175.521 77.142 180.341 77.055C181.401 77.038 183.761 77.3 185.301 78.545C186.581 79.595 186.941 81.015 187.121 82.012C187.281 83.008 187.501 85.278 187.321 87.05C185.401 107.29 177.061 156.406 172.821 179.076C171.041 188.668 167.501 191.884 164.081 192.198C156.641 192.882 151.001 187.286 143.801 182.568C132.541 175.182 126.181 170.586 115.241 163.38C102.601 155.052 110.801 150.474 118.001 142.994C119.881 141.036 152.641 111.246 153.261 108.544C153.341 108.206 153.421 106.946 152.661 106.282C151.921 105.616 150.821 105.844 150.021 106.024C148.881 106.28 130.901 118.176 96.021 141.71C90.921 145.218 86.301 146.928 82.141 146.838C77.581 146.74 68.781 144.254 62.241 142.13C54.241 139.524 47.861 138.146 48.421 133.72C48.701 131.416 51.881 129.058 57.941 126.648Z" fill="white"/>
</g>
<defs>
<linearGradient id="paint0_linear_673_2500" x1="12800" y1="0" x2="12800" y2="25600" gradientUnits="userSpaceOnUse">
<stop stop-color="#2AABEE"/>
<stop offset="1" stop-color="#229ED9"/>
</linearGradient>
<clipPath id="clip0_673_2500">
<rect width="256" height="256" fill="white"/>
</clipPath>
</defs>
</svg>
