<svg width="44" height="33" viewBox="0 0 44 33" fill="none" xmlns="http://www.w3.org/2000/svg">
<g filter="url(#filter0_d_110_14)">
<path d="M11.3309 5.98493L9.04 3.69635L7.24545 5.49909L9.52364 7.78767L11.3309 5.98493ZM7.81818 13.2215H4V15.7785H7.81818V13.2215ZM19.2727 0.5H16.7273V4.27169H19.2727V0.5ZM28.7545 5.49909L26.96 3.69635L24.6818 5.98493L26.4764 7.78767L28.7545 5.49909ZM24.6691 23.0151L26.9473 25.3164L28.7418 23.5137L26.4509 21.2251L24.6691 23.0151ZM28.1818 13.2215V15.7785H32V13.2215H28.1818ZM18 6.82877C13.7873 6.82877 10.3636 10.268 10.3636 14.5C10.3636 18.732 13.7873 22.1712 18 22.1712C22.2127 22.1712 25.6364 18.732 25.6364 14.5C25.6364 10.268 22.2127 6.82877 18 6.82877ZM16.7273 28.5H19.2727V24.7283H16.7273V28.5ZM7.24545 23.5009L9.04 25.3037L11.3182 23.0023L9.52364 21.1995L7.24545 23.5009Z" fill="#FFD057"/>
</g>
<defs>
<filter id="filter0_d_110_14" x="-8" y="0.5" width="52" height="52" filterUnits="userSpaceOnUse" color-interpolation-filters="sRGB">
<feFlood flood-opacity="0" result="BackgroundImageFix"/>
<feColorMatrix in="SourceAlpha" type="matrix" values="0 0 0 0 0 0 0 0 0 0 0 0 0 0 0 0 0 0 127 0" result="hardAlpha"/>
<feOffset dy="12"/>
<feGaussianBlur stdDeviation="6"/>
<feComposite in2="hardAlpha" operator="out"/>
<feColorMatrix type="matrix" values="0 0 0 0 1 0 0 0 0 0.805167 0 0 0 0 0.304167 0 0 0 0.25 0"/>
<feBlend mode="normal" in2="BackgroundImageFix" result="effect1_dropShadow_110_14"/>
<feBlend mode="normal" in="SourceGraphic" in2="effect1_dropShadow_110_14" result="shape"/>
</filter>
</defs>
</svg>
